<?xml version="1.0" standalone="no"?>
<!DOCTYPE svg PUBLIC "-//W3C//DTD SVG 20010904//EN"
 "http://www.w3.org/TR/2001/REC-SVG-20010904/DTD/svg10.dtd">
<svg version="1.0" xmlns="http://www.w3.org/2000/svg"
 width="512.000000pt" height="512.000000pt" viewBox="0 0 512.000000 512.000000"
 preserveAspectRatio="xMidYMid meet">

<g transform="translate(0.000000,512.000000) scale(0.100000,-0.100000)"
fill="#000000" stroke="none">
<path d="M2065 5106 c-65 -28 -113 -116 -100 -183 4 -20 25 -72 46 -116 22
-43 39 -80 37 -81 -2 -1 -56 -16 -121 -34 -399 -108 -751 -314 -1053 -616
-373 -372 -599 -823 -680 -1351 -25 -167 -25 -503 0 -670 23 -152 74 -352 121
-480 87 -239 252 -526 409 -714 67 -79 252 -264 321 -319 l40 -32 -480 0
c-478 0 -480 0 -519 -23 -25 -14 -48 -39 -63 -66 -20 -39 -23 -58 -23 -162 0
-128 7 -159 48 -203 57 -60 -124 -56 2512 -56 2636 0 2455 -4 2512 56 41 44
48 75 48 203 0 104 -3 123 -23 162 -15 27 -38 52 -63 66 -39 23 -41 23 -519
23 l-480 0 55 47 c392 335 662 764 785 1247 250 985 -147 2014 -995 2577 -203
135 -450 247 -688 311 -64 18 -118 33 -120 34 -2 1 15 38 37 81 21 44 42 96
46 116 13 68 -36 156 -102 183 -47 20 -943 20 -988 0z m711 -576 c-116 -231
-213 -420 -216 -420 -3 0 -101 189 -218 420 l-213 420 429 0 430 0 -212 -420z
m-600 -42 c20 -39 32 -74 27 -78 -4 -4 -35 -12 -68 -19 -377 -78 -740 -276
-1020 -556 -731 -730 -806 -1872 -178 -2693 324 -423 816 -707 1353 -783 133
-19 439 -16 565 5 462 76 844 271 1160 591 345 349 542 778 586 1272 75 859
-430 1696 -1230 2041 -126 54 -316 114 -404 127 -26 4 -50 11 -52 16 -3 4 10
40 30 79 26 52 40 70 56 70 74 0 352 -92 517 -170 666 -318 1124 -943 1239
-1690 23 -157 24 -462 0 -620 -77 -503 -302 -942 -662 -1288 -343 -331 -771
-537 -1255 -604 -137 -19 -449 -16 -590 6 -503 76 -935 297 -1286 658 -322
331 -522 738 -600 1223 -25 153 -25 477 0 630 66 412 220 767 466 1075 78 97
264 282 360 357 177 138 433 277 635 346 122 41 296 86 308 80 4 -3 23 -36 43
-75z m287 -530 c25 -18 45 -23 97 -23 96 0 114 17 196 178 37 72 67 133 68
134 3 4 213 -39 224 -46 8 -4 -50 -193 -186 -611 l-197 -605 -104 0 -103 0
-194 598 c-107 329 -194 603 -194 607 0 11 60 28 155 44 l70 12 68 -133 c48
-93 78 -139 100 -155z m-365 -416 c106 -328 192 -603 192 -609 0 -7 -13 -19
-28 -27 -16 -8 -52 -33 -81 -56 l-52 -41 -497 362 c-273 199 -505 369 -515
379 -18 16 -16 20 45 90 84 98 220 216 348 302 101 69 349 197 380 198 11 0
66 -159 208 -598z m1282 532 c135 -65 302 -174 416 -273 79 -67 224 -223 224
-239 0 -7 -850 -629 -996 -730 l-33 -22 -64 47 c-35 27 -72 53 -83 59 -18 11
-17 19 38 185 31 96 120 369 198 607 135 412 142 433 163 427 12 -4 74 -31
137 -61z m-1865 -1028 c305 -223 509 -378 508 -387 -2 -8 -15 -51 -30 -96
l-28 -83 -639 0 -639 0 6 88 c11 170 69 395 149 577 43 97 144 275 156 274 4
0 237 -168 517 -373z m2704 214 c71 -138 119 -258 155 -396 30 -114 56 -276
56 -346 l0 -48 -639 0 -639 0 -11 52 c-6 28 -20 72 -32 96 -16 37 -17 48 -7
58 7 6 146 108 308 225 311 225 581 420 665 482 l50 36 17 -22 c10 -12 44 -74
77 -137z m-1511 -472 c151 -56 253 -179 283 -340 42 -230 -125 -460 -365 -501
-281 -48 -546 216 -497 496 15 89 70 194 131 251 54 51 150 101 221 116 61 13
160 3 227 -22z m-868 -484 l125 -7 31 -94 31 -94 -266 -193 c-146 -106 -378
-275 -516 -374 l-250 -182 -18 23 c-9 12 -50 88 -90 168 -111 220 -180 456
-194 667 l-6 92 514 0 c283 0 570 -3 639 -6z m2587 -95 c-15 -198 -85 -447
-182 -644 -60 -120 -111 -205 -123 -204 -4 0 -236 168 -517 373 -307 224 -509
378 -508 387 2 8 15 51 30 96 l28 83 639 0 639 0 -6 -91z m-2234 -286 c35 -27
72 -53 83 -59 18 -11 16 -20 -43 -200 -34 -104 -123 -377 -198 -606 -75 -230
-141 -418 -146 -418 -21 0 -158 63 -252 116 -53 31 -143 89 -200 131 -111 83
-340 307 -335 329 2 10 1011 752 1025 754 1 0 31 -21 66 -47z m1295 -314 c273
-199 506 -370 516 -380 19 -17 18 -19 -45 -90 -88 -100 -224 -217 -349 -301
-103 -69 -350 -198 -380 -198 -11 0 -67 160 -208 598 -106 328 -192 602 -192
609 0 6 19 22 43 36 23 14 58 39 77 56 19 17 36 30 38 31 2 0 227 -163 500
-361z m-631 -413 c107 -330 192 -605 189 -611 -6 -17 -203 -53 -358 -67 -139
-12 -324 -1 -474 27 -126 25 -156 35 -150 50 3 8 91 278 197 602 105 323 193
590 194 593 2 3 49 5 106 5 l102 -1 194 -598z m-1363 -941 l169 -85 -746 0
-747 0 0 85 0 85 578 0 577 0 169 -85z m3456 0 l0 -85 -752 1 -753 0 60 26
c33 15 110 53 170 84 l110 58 583 0 582 1 0 -85z"/>
<path d="M2498 2636 c-99 -27 -165 -96 -187 -198 -32 -140 74 -264 156 -182
23 23 25 31 19 72 -11 72 -8 94 15 118 11 12 37 25 57 29 51 9 82 40 82 82 0
47 -14 69 -51 82 -37 13 -31 13 -91 -3z"/>
</g>
</svg>
